<?xml version="1.0" encoding="utf-8"?>
<!-- Generator: Adobe Illustrator 15.0.0, SVG Export Plug-In . SVG Version: 6.00 Build 0)  -->
<!DOCTYPE svg PUBLIC "-//W3C//DTD SVG 1.1//EN" "http://www.w3.org/Graphics/SVG/1.1/DTD/svg11.dtd">
<svg version="1.1" id="Layer_1" xmlns="http://www.w3.org/2000/svg" xmlns:xlink="http://www.w3.org/1999/xlink" x="0px" y="0px"
	 width="32px" height="32.756px" viewBox="0 0 32 32.756" enable-background="new 0 0 32 32.756" xml:space="preserve">
<path fill="#A4A9AE" d="M31.971,29.085l-8.119-8.119c1.59-2.182,2.555-4.84,2.555-7.746C26.404,5.913,20.488,0,13.195,0
	C5.888,0-0.029,5.913-0.029,13.22c0,7.299,5.917,13.215,13.224,13.215c2.506,0,4.831-0.737,6.829-1.953l8.276,8.274L31.971,29.085z
	 M3.807,13.22c0.009-5.183,4.197-9.379,9.388-9.384c5.182,0.004,9.372,4.201,9.375,9.384c-0.004,5.174-4.192,9.37-9.375,9.379
	C8.003,22.59,3.815,18.394,3.807,13.22z"/>
</svg>
